<mxfile host="app.diagrams.net" agent="Mozilla/5.0 (Windows NT 10.0; Win64; x64) AppleWebKit/537.36 (KHTML, like Gecko) Chrome/140.0.0.0 Safari/537.36" version="28.2.3">
  <diagram name="PÃ¡gina-1" id="PdCRCZzltAvoB7QOTEDO">
    <mxGraphModel dx="1056" dy="586" grid="1" gridSize="10" guides="1" tooltips="1" connect="1" arrows="1" fold="1" page="1" pageScale="1" pageWidth="1654" pageHeight="2336" math="0" shadow="0">
      <root>
        <mxCell id="0" />
        <mxCell id="1" parent="0" />
        <mxCell id="8iS0AzTRtQN_j--zw8gc-29" value="&lt;font style=&quot;font-size: 18px;&quot;&gt;Juego&lt;/font&gt;" style="swimlane;fontStyle=1;align=center;verticalAlign=top;childLayout=stackLayout;horizontal=1;startSize=26;horizontalStack=0;resizeParent=1;resizeParentMax=0;resizeLast=0;collapsible=1;marginBottom=0;whiteSpace=wrap;html=1;" vertex="1" parent="1">
          <mxGeometry x="620" y="370" width="500" height="490" as="geometry" />
        </mxCell>
        <mxCell id="8iS0AzTRtQN_j--zw8gc-63" value="&lt;span style=&quot;font-family: Arial, sans-serif; font-size: 18px; font-weight: 700; text-align: center; white-space-collapse: preserve;&quot;&gt;__innit__(Personaje)&lt;/span&gt;" style="text;strokeColor=none;fillColor=none;align=left;verticalAlign=top;spacingLeft=4;spacingRight=4;overflow=hidden;rotatable=0;points=[[0,0.5],[1,0.5]];portConstraint=eastwest;whiteSpace=wrap;html=1;" vertex="1" parent="8iS0AzTRtQN_j--zw8gc-29">
          <mxGeometry y="26" width="500" height="26" as="geometry" />
        </mxCell>
        <mxCell id="8iS0AzTRtQN_j--zw8gc-31" value="" style="line;strokeWidth=1;fillColor=none;align=left;verticalAlign=middle;spacingTop=-1;spacingLeft=3;spacingRight=3;rotatable=0;labelPosition=right;points=[];portConstraint=eastwest;strokeColor=inherit;" vertex="1" parent="8iS0AzTRtQN_j--zw8gc-29">
          <mxGeometry y="52" width="500" height="8" as="geometry" />
        </mxCell>
        <mxCell id="8iS0AzTRtQN_j--zw8gc-32" value="&lt;div&gt;&lt;span style=&quot;background-color: transparent; color: light-dark(rgb(0, 0, 0), rgb(255, 255, 255)); font-family: Arial, sans-serif; font-size: 12pt; font-weight: 700; white-space-collapse: preserve; text-align: center;&quot;&gt;Puntos_disponibles(Puntos de subida de nivel)&lt;/span&gt;&lt;div&gt;&lt;div style=&quot;&quot;&gt;&lt;div&gt;&lt;span id=&quot;docs-internal-guid-f26e9da4-7fff-524c-2279-a42b9b181221&quot;&gt;&lt;span style=&quot;font-size: 12pt; font-family: Arial, sans-serif; background-color: transparent; font-weight: 700; font-variant-numeric: normal; font-variant-east-asian: normal; font-variant-alternates: normal; font-variant-position: normal; font-variant-emoji: normal; vertical-align: baseline; white-space-collapse: preserve;&quot;&gt;Estadistica_a_subir(Puntos de subida de nivel,&lt;/span&gt;&lt;/span&gt;&lt;span style=&quot;background-color: transparent; font-family: Arial, sans-serif; font-size: 12pt; font-weight: 700; white-space-collapse: preserve; color: light-dark(rgb(0, 0, 0), rgb(255, 255, 255));&quot;&gt;Estadisticas)&lt;/span&gt;&lt;/div&gt;&lt;div&gt;&lt;span id=&quot;docs-internal-guid-75a7183b-7fff-be4a-fb4f-d59a2a49d6b7&quot;&gt;&lt;span style=&quot;font-size: 12pt; font-family: Arial, sans-serif; background-color: transparent; font-weight: 700; font-variant-numeric: normal; font-variant-east-asian: normal; font-variant-alternates: normal; font-variant-position: normal; font-variant-emoji: normal; vertical-align: baseline; white-space-collapse: preserve;&quot;&gt;seleccionarOpcion(opcion)&lt;/span&gt;&lt;/span&gt;&lt;span style=&quot;background-color: transparent; font-family: Arial, sans-serif; font-size: 12pt; font-weight: 700; white-space-collapse: preserve; color: light-dark(rgb(0, 0, 0), rgb(255, 255, 255));&quot;&gt;&lt;/span&gt;&lt;/div&gt;&lt;div&gt;&lt;span id=&quot;docs-internal-guid-c2816658-7fff-e07a-bf03-43f05cb78c75&quot;&gt;&lt;span style=&quot;font-size: 12pt; font-family: Arial, sans-serif; background-color: transparent; font-weight: 700; font-variant-numeric: normal; font-variant-east-asian: normal; font-variant-alternates: normal; font-variant-position: normal; font-variant-emoji: normal; vertical-align: baseline; white-space-collapse: preserve;&quot;&gt;crearPersonaje(nombre_jugador, genero_jugador)&lt;/span&gt;&lt;/span&gt;&lt;span&gt;&lt;span style=&quot;font-size: 12pt; font-family: Arial, sans-serif; background-color: transparent; font-weight: 700; font-variant-numeric: normal; font-variant-east-asian: normal; font-variant-alternates: normal; font-variant-position: normal; font-variant-emoji: normal; vertical-align: baseline; white-space-collapse: preserve;&quot;&gt;&lt;/span&gt;&lt;/span&gt;&lt;/div&gt;&lt;div&gt;&lt;span id=&quot;docs-internal-guid-5d08ff9f-7fff-c651-4a83-7f4127ac661f&quot;&gt;&lt;span style=&quot;font-size: 12pt; font-family: Arial, sans-serif; background-color: transparent; font-weight: 700; font-variant-numeric: normal; font-variant-east-asian: normal; font-variant-alternates: normal; font-variant-position: normal; font-variant-emoji: normal; vertical-align: baseline; white-space-collapse: preserve;&quot;&gt;verificarResultado(estadisticas_jugador,estadisticas_enemigo)&lt;/span&gt;&lt;/span&gt;&lt;span&gt;&lt;span style=&quot;font-size: 12pt; font-family: Arial, sans-serif; background-color: transparent; font-weight: 700; font-variant-numeric: normal; font-variant-east-asian: normal; font-variant-alternates: normal; font-variant-position: normal; font-variant-emoji: normal; vertical-align: baseline; white-space-collapse: preserve;&quot;&gt;&lt;/span&gt;&lt;/span&gt;&lt;/div&gt;&lt;div&gt;&lt;span id=&quot;docs-internal-guid-241b4b5e-7fff-47ea-26e3-ab2d6be309b1&quot;&gt;&lt;span style=&quot;font-size: 12pt; font-family: Arial, sans-serif; background-color: transparent; font-weight: 700; font-variant-numeric: normal; font-variant-east-asian: normal; font-variant-alternates: normal; font-variant-position: normal; font-variant-emoji: normal; vertical-align: baseline; white-space-collapse: preserve;&quot;&gt;asignarRecompensas(jugador, recompensas_obtenidas)&lt;/span&gt;&lt;/span&gt;&lt;span&gt;&lt;span style=&quot;font-size: 12pt; font-family: Arial, sans-serif; background-color: transparent; font-weight: 700; font-variant-numeric: normal; font-variant-east-asian: normal; font-variant-alternates: normal; font-variant-position: normal; font-variant-emoji: normal; vertical-align: baseline; white-space-collapse: preserve;&quot;&gt;&lt;/span&gt;&lt;/span&gt;&lt;/div&gt;&lt;div&gt;&lt;span id=&quot;docs-internal-guid-e1de7946-7fff-57d1-cd37-fd3970fe36a4&quot;&gt;&lt;span style=&quot;font-size: 12pt; font-family: Arial, sans-serif; background-color: transparent; font-weight: 700; font-variant-numeric: normal; font-variant-east-asian: normal; font-variant-alternates: normal; font-variant-position: normal; font-variant-emoji: normal; vertical-align: baseline; white-space-collapse: preserve;&quot;&gt;Opcion_estadisiticas(Estadisticas)&lt;/span&gt;&lt;/span&gt;&lt;span&gt;&lt;span style=&quot;font-size: 12pt; font-family: Arial, sans-serif; background-color: transparent; font-weight: 700; font-variant-numeric: normal; font-variant-east-asian: normal; font-variant-alternates: normal; font-variant-position: normal; font-variant-emoji: normal; vertical-align: baseline; white-space-collapse: preserve;&quot;&gt;&lt;/span&gt;&lt;/span&gt;&lt;/div&gt;&lt;div&gt;&lt;span id=&quot;docs-internal-guid-1b00dba7-7fff-94b4-d0a9-88fb71cadf69&quot;&gt;&lt;span style=&quot;font-size: 12pt; font-family: Arial, sans-serif; background-color: transparent; font-weight: 700; font-variant-numeric: normal; font-variant-east-asian: normal; font-variant-alternates: normal; font-variant-position: normal; font-variant-emoji: normal; vertical-align: baseline; white-space-collapse: preserve;&quot;&gt;mostrar_estadisiticas(Estadisticas) &lt;/span&gt;&lt;/span&gt;&lt;span&gt;&lt;span style=&quot;font-size: 12pt; font-family: Arial, sans-serif; background-color: transparent; font-weight: 700; font-variant-numeric: normal; font-variant-east-asian: normal; font-variant-alternates: normal; font-variant-position: normal; font-variant-emoji: normal; vertical-align: baseline; white-space-collapse: preserve;&quot;&gt;&lt;/span&gt;&lt;/span&gt;&lt;/div&gt;&lt;div&gt;&lt;span id=&quot;docs-internal-guid-c5f46b40-7fff-b279-d881-80a0a3c4e29b&quot;&gt;&lt;span style=&quot;font-size: 12pt; font-family: Arial, sans-serif; background-color: transparent; font-weight: 700; font-variant-numeric: normal; font-variant-east-asian: normal; font-variant-alternates: normal; font-variant-position: normal; font-variant-emoji: normal; vertical-align: baseline; white-space-collapse: preserve;&quot;&gt;Actualizar_vista(Estadisticas)&lt;/span&gt;&lt;/span&gt;&lt;span&gt;&lt;span style=&quot;font-size: 12pt; font-family: Arial, sans-serif; background-color: transparent; font-weight: 700; font-variant-numeric: normal; font-variant-east-asian: normal; font-variant-alternates: normal; font-variant-position: normal; font-variant-emoji: normal; vertical-align: baseline; white-space-collapse: preserve;&quot;&gt;&lt;/span&gt;&lt;/span&gt;&lt;/div&gt;&lt;div&gt;&lt;span id=&quot;docs-internal-guid-d2edeed1-7fff-63f2-4926-01c381d6578f&quot;&gt;&lt;span style=&quot;font-size: 12pt; font-family: Arial, sans-serif; background-color: transparent; font-weight: 700; font-variant-numeric: normal; font-variant-east-asian: normal; font-variant-alternates: normal; font-variant-position: normal; font-variant-emoji: normal; vertical-align: baseline; white-space-collapse: preserve;&quot;&gt;volverHistoria(estado_historia, id_escenario)&lt;/span&gt;&lt;/span&gt;&lt;span&gt;&lt;span style=&quot;font-size: 12pt; font-family: Arial, sans-serif; background-color: transparent; font-weight: 700; font-variant-numeric: normal; font-variant-east-asian: normal; font-variant-alternates: normal; font-variant-position: normal; font-variant-emoji: normal; vertical-align: baseline; white-space-collapse: preserve;&quot;&gt;&lt;/span&gt;&lt;/span&gt;&lt;/div&gt;&lt;div&gt;&lt;span id=&quot;docs-internal-guid-9b0ecf71-7fff-64d8-b8f0-7bc47db27803&quot;&gt;&lt;span style=&quot;font-size: 12pt; font-family: Arial, sans-serif; background-color: transparent; font-weight: 700; font-variant-numeric: normal; font-variant-east-asian: normal; font-variant-alternates: normal; font-variant-position: normal; font-variant-emoji: normal; vertical-align: baseline; white-space-collapse: preserve;&quot;&gt;analizarExperiencia(id_personaje, xp_actual)&lt;/span&gt;&lt;/span&gt;&lt;span&gt;&lt;span style=&quot;font-size: 12pt; font-family: Arial, sans-serif; background-color: transparent; font-weight: 700; font-variant-numeric: normal; font-variant-east-asian: normal; font-variant-alternates: normal; font-variant-position: normal; font-variant-emoji: normal; vertical-align: baseline; white-space-collapse: preserve;&quot;&gt;&lt;/span&gt;&lt;/span&gt;&lt;/div&gt;&lt;div&gt;&lt;span id=&quot;docs-internal-guid-0d89f3e5-7fff-9190-764b-54944030ad9a&quot;&gt;&lt;span style=&quot;font-size: 12pt; font-family: Arial, sans-serif; background-color: transparent; font-weight: 700; font-variant-numeric: normal; font-variant-east-asian: normal; font-variant-alternates: normal; font-variant-position: normal; font-variant-emoji: normal; vertical-align: baseline; white-space-collapse: preserve;&quot;&gt;verificarNivel(xp_actual, xp_requerida)&lt;/span&gt;&lt;/span&gt;&lt;span&gt;&lt;span style=&quot;font-size: 12pt; font-family: Arial, sans-serif; background-color: transparent; font-weight: 700; font-variant-numeric: normal; font-variant-east-asian: normal; font-variant-alternates: normal; font-variant-position: normal; font-variant-emoji: normal; vertical-align: baseline; white-space-collapse: preserve;&quot;&gt;&lt;/span&gt;&lt;/span&gt;&lt;/div&gt;&lt;div&gt;&lt;span id=&quot;docs-internal-guid-f95cac98-7fff-1d00-e83e-b40abb59ed50&quot;&gt;&lt;span style=&quot;font-size: 12pt; font-family: Arial, sans-serif; background-color: transparent; font-weight: 700; font-variant-numeric: normal; font-variant-east-asian: normal; font-variant-alternates: normal; font-variant-position: normal; font-variant-emoji: normal; vertical-align: baseline; white-space-collapse: preserve;&quot;&gt;calcularPuntosMejora(nivel_actual, clase_personaje)&lt;/span&gt;&lt;/span&gt;&lt;span&gt;&lt;span style=&quot;font-size: 12pt; font-family: Arial, sans-serif; background-color: transparent; font-weight: 700; font-variant-numeric: normal; font-variant-east-asian: normal; font-variant-alternates: normal; font-variant-position: normal; font-variant-emoji: normal; vertical-align: baseline; white-space-collapse: preserve;&quot;&gt;&lt;/span&gt;&lt;/span&gt;&lt;/div&gt;&lt;div&gt;&lt;span id=&quot;docs-internal-guid-a10638a4-7fff-bab9-bf83-4e32337f8903&quot;&gt;&lt;span style=&quot;font-size: 12pt; font-family: Arial, sans-serif; background-color: transparent; font-weight: 700; font-variant-numeric: normal; font-variant-east-asian: normal; font-variant-alternates: normal; font-variant-position: normal; font-variant-emoji: normal; vertical-align: baseline; white-space-collapse: preserve;&quot;&gt;volverHistoria(estado_historia, id_escenario)&lt;/span&gt;&lt;/span&gt;&lt;span&gt;&lt;span style=&quot;font-size: 12pt; font-family: Arial, sans-serif; background-color: transparent; font-weight: 700; font-variant-numeric: normal; font-variant-east-asian: normal; font-variant-alternates: normal; font-variant-position: normal; font-variant-emoji: normal; vertical-align: baseline; white-space-collapse: preserve;&quot;&gt;&lt;/span&gt;&lt;/span&gt;&lt;/div&gt;&lt;div&gt;&lt;span id=&quot;docs-internal-guid-6600057e-7fff-774f-9c21-ce6ef04a73ac&quot;&gt;&lt;span style=&quot;font-size: 12pt; font-family: Arial, sans-serif; background-color: transparent; font-weight: 700; font-variant-numeric: normal; font-variant-east-asian: normal; font-variant-alternates: normal; font-variant-position: normal; font-variant-emoji: normal; vertical-align: baseline; white-space-collapse: preserve;&quot;&gt;mercado_disponible(objetos) &lt;/span&gt;&lt;/span&gt;&lt;span&gt;&lt;span style=&quot;font-size: 12pt; font-family: Arial, sans-serif; background-color: transparent; font-weight: 700; font-variant-numeric: normal; font-variant-east-asian: normal; font-variant-alternates: normal; font-variant-position: normal; font-variant-emoji: normal; vertical-align: baseline; white-space-collapse: preserve;&quot;&gt;&lt;/span&gt;&lt;/span&gt;&lt;/div&gt;&lt;div&gt;&lt;span id=&quot;docs-internal-guid-6efada0d-7fff-a168-9b3d-40e46d330bd0&quot;&gt;&lt;span style=&quot;font-size: 12pt; font-family: Arial, sans-serif; background-color: transparent; font-weight: 700; font-variant-numeric: normal; font-variant-east-asian: normal; font-variant-alternates: normal; font-variant-position: normal; font-variant-emoji: normal; vertical-align: baseline; white-space-collapse: preserve;&quot;&gt;confirmar_compra(objetos)&lt;/span&gt;&lt;/span&gt;&lt;span&gt;&lt;span style=&quot;font-size: 12pt; font-family: Arial, sans-serif; background-color: transparent; font-weight: 700; font-variant-numeric: normal; font-variant-east-asian: normal; font-variant-alternates: normal; font-variant-position: normal; font-variant-emoji: normal; vertical-align: baseline; white-space-collapse: preserve;&quot;&gt;&lt;/span&gt;&lt;/span&gt;&lt;/div&gt;&lt;div&gt;&lt;span id=&quot;docs-internal-guid-cff79d16-7fff-cc68-bb70-f0916b280c97&quot;&gt;&lt;span style=&quot;font-size: 12pt; font-family: Arial, sans-serif; background-color: transparent; font-weight: 700; font-variant-numeric: normal; font-variant-east-asian: normal; font-variant-alternates: normal; font-variant-position: normal; font-variant-emoji: normal; vertical-align: baseline; white-space-collapse: preserve;&quot;&gt;confirmar_venta (objetos)&lt;/span&gt;&lt;/span&gt;&lt;span&gt;&lt;span style=&quot;font-size: 12pt; font-family: Arial, sans-serif; background-color: transparent; font-weight: 700; font-variant-numeric: normal; font-variant-east-asian: normal; font-variant-alternates: normal; font-variant-position: normal; font-variant-emoji: normal; vertical-align: baseline; white-space-collapse: preserve;&quot;&gt;&lt;/span&gt;&lt;/span&gt;&lt;/div&gt;&lt;div&gt;&lt;span id=&quot;docs-internal-guid-92ed2fb1-7fff-ede0-e8b3-632b3c4683e8&quot;&gt;&lt;span style=&quot;font-size: 12pt; font-family: Arial, sans-serif; background-color: transparent; font-weight: 700; font-variant-numeric: normal; font-variant-east-asian: normal; font-variant-alternates: normal; font-variant-position: normal; font-variant-emoji: normal; vertical-align: baseline; white-space-collapse: preserve;&quot;&gt;agregar_inventario(objeto)&lt;/span&gt;&lt;/span&gt;&lt;span&gt;&lt;span style=&quot;font-size: 12pt; font-family: Arial, sans-serif; background-color: transparent; font-weight: 700; font-variant-numeric: normal; font-variant-east-asian: normal; font-variant-alternates: normal; font-variant-position: normal; font-variant-emoji: normal; vertical-align: baseline; white-space-collapse: preserve;&quot;&gt;&lt;/span&gt;&lt;/span&gt;&lt;/div&gt;&lt;div&gt;&lt;span id=&quot;docs-internal-guid-9d577ff5-7fff-0b88-62ef-de2744dc55ab&quot;&gt;&lt;span style=&quot;font-size: 12pt; font-family: Arial, sans-serif; background-color: transparent; font-weight: 700; font-variant-numeric: normal; font-variant-east-asian: normal; font-variant-alternates: normal; font-variant-position: normal; font-variant-emoji: normal; vertical-align: baseline; white-space-collapse: preserve;&quot;&gt;actualizar_dinero(objeto)&lt;/span&gt;&lt;/span&gt;&lt;span&gt;&lt;span style=&quot;font-size: 12pt; font-family: Arial, sans-serif; background-color: transparent; font-weight: 700; font-variant-numeric: normal; font-variant-east-asian: normal; font-variant-alternates: normal; font-variant-position: normal; font-variant-emoji: normal; vertical-align: baseline; white-space-collapse: preserve;&quot;&gt;&lt;/span&gt;&lt;/span&gt;&lt;/div&gt;&lt;div&gt;&lt;br&gt;&lt;/div&gt;&lt;/div&gt;&lt;/div&gt;&lt;/div&gt;" style="text;strokeColor=none;fillColor=none;align=left;verticalAlign=top;spacingLeft=4;spacingRight=4;overflow=hidden;rotatable=0;points=[[0,0.5],[1,0.5]];portConstraint=eastwest;whiteSpace=wrap;html=1;" vertex="1" parent="8iS0AzTRtQN_j--zw8gc-29">
          <mxGeometry y="60" width="500" height="430" as="geometry" />
        </mxCell>
        <mxCell id="8iS0AzTRtQN_j--zw8gc-33" value="&lt;font style=&quot;font-size: 18px;&quot;&gt;Historia&lt;/font&gt;" style="swimlane;fontStyle=1;align=center;verticalAlign=top;childLayout=stackLayout;horizontal=1;startSize=26;horizontalStack=0;resizeParent=1;resizeParentMax=0;resizeLast=0;collapsible=1;marginBottom=0;whiteSpace=wrap;html=1;" vertex="1" parent="1">
          <mxGeometry x="920" y="1050" width="460" height="214" as="geometry" />
        </mxCell>
        <mxCell id="8iS0AzTRtQN_j--zw8gc-35" value="" style="line;strokeWidth=1;fillColor=none;align=left;verticalAlign=middle;spacingTop=-1;spacingLeft=3;spacingRight=3;rotatable=0;labelPosition=right;points=[];portConstraint=eastwest;strokeColor=inherit;" vertex="1" parent="8iS0AzTRtQN_j--zw8gc-33">
          <mxGeometry y="26" width="460" height="8" as="geometry" />
        </mxCell>
        <mxCell id="8iS0AzTRtQN_j--zw8gc-36" value="&lt;div&gt;&lt;div&gt;&lt;div style=&quot;&quot;&gt;&lt;div&gt;&lt;span style=&quot;&quot; id=&quot;docs-internal-guid-e0f4a7c0-7fff-3a54-6731-63a44a473f8f&quot;&gt;&lt;span style=&quot;font-size: 12pt; font-family: Arial, sans-serif; background-color: transparent; font-weight: 700; font-variant-numeric: normal; font-variant-east-asian: normal; font-variant-alternates: normal; font-variant-position: normal; font-variant-emoji: normal; vertical-align: baseline; white-space-collapse: preserve;&quot;&gt;DecisiÃ³n(DecisiÃ³n_Importante)&lt;/span&gt;&lt;/span&gt;&lt;div style=&quot;&quot;&gt;&lt;span id=&quot;docs-internal-guid-9fe5ad73-7fff-7bfd-89a6-68bdedb3429b&quot;&gt;&lt;span style=&quot;font-size: 12pt; font-family: Arial, sans-serif; background-color: transparent; font-weight: 700; font-variant-numeric: normal; font-variant-east-asian: normal; font-variant-alternates: normal; font-variant-position: normal; font-variant-emoji: normal; vertical-align: baseline; white-space-collapse: preserve;&quot;&gt;Decision_tomada(Decision)&lt;/span&gt;&lt;/span&gt;&lt;/div&gt;&lt;/div&gt;&lt;div style=&quot;&quot;&gt;&lt;span id=&quot;docs-internal-guid-197505c8-7fff-f4c1-6126-517748829271&quot;&gt;&lt;span style=&quot;font-size: 12pt; font-family: Arial, sans-serif; background-color: transparent; font-weight: 700; font-variant-numeric: normal; font-variant-east-asian: normal; font-variant-alternates: normal; font-variant-position: normal; font-variant-emoji: normal; vertical-align: baseline; white-space-collapse: preserve;&quot;&gt;detectarEventoReclutamiento(estado_historia, id_escenario)&lt;/span&gt;&lt;/span&gt;&lt;span&gt;&lt;span style=&quot;font-size: 12pt; font-family: Arial, sans-serif; background-color: transparent; font-weight: 700; font-variant-numeric: normal; font-variant-east-asian: normal; font-variant-alternates: normal; font-variant-position: normal; font-variant-emoji: normal; vertical-align: baseline; white-space-collapse: preserve;&quot;&gt;&lt;/span&gt;&lt;/span&gt;&lt;/div&gt;&lt;div style=&quot;&quot;&gt;&lt;span id=&quot;docs-internal-guid-188ba4c1-7fff-6b79-b430-8be7d8bc7313&quot;&gt;&lt;span style=&quot;font-size: 12pt; font-family: Arial, sans-serif; background-color: transparent; font-weight: 700; font-variant-numeric: normal; font-variant-east-asian: normal; font-variant-alternates: normal; font-variant-position: normal; font-variant-emoji: normal; vertical-align: baseline; white-space-collapse: preserve;&quot;&gt;verificarObjetivos(objetivos_cumplidos, estado_historia)&lt;/span&gt;&lt;/span&gt;&lt;span&gt;&lt;span style=&quot;font-size: 12pt; font-family: Arial, sans-serif; background-color: transparent; font-weight: 700; font-variant-numeric: normal; font-variant-east-asian: normal; font-variant-alternates: normal; font-variant-position: normal; font-variant-emoji: normal; vertical-align: baseline; white-space-collapse: preserve;&quot;&gt;&lt;/span&gt;&lt;/span&gt;&lt;/div&gt;&lt;div style=&quot;&quot;&gt;&lt;span id=&quot;docs-internal-guid-0085fe4a-7fff-4551-eee2-3d8904db19ce&quot;&gt;&lt;span style=&quot;font-size: 12pt; font-family: Arial, sans-serif; background-color: transparent; font-weight: 700; font-variant-numeric: normal; font-variant-east-asian: normal; font-variant-alternates: normal; font-variant-position: normal; font-variant-emoji: normal; vertical-align: baseline; white-space-collapse: preserve;&quot;&gt;determinarFinal(lista_decisiones, estado_historia)&lt;/span&gt;&lt;/span&gt;&lt;span&gt;&lt;span style=&quot;font-size: 12pt; font-family: Arial, sans-serif; background-color: transparent; font-weight: 700; font-variant-numeric: normal; font-variant-east-asian: normal; font-variant-alternates: normal; font-variant-position: normal; font-variant-emoji: normal; vertical-align: baseline; white-space-collapse: preserve;&quot;&gt;&lt;/span&gt;&lt;/span&gt;&lt;/div&gt;&lt;div style=&quot;&quot;&gt;&lt;span id=&quot;docs-internal-guid-85fa80c7-7fff-62e1-1d1e-d105134c191f&quot;&gt;&lt;span style=&quot;font-size: 12pt; font-family: Arial, sans-serif; background-color: transparent; font-weight: 700; font-variant-numeric: normal; font-variant-east-asian: normal; font-variant-alternates: normal; font-variant-position: normal; font-variant-emoji: normal; vertical-align: baseline; white-space-collapse: preserve;&quot;&gt;cargarNarrativaFinal(tipo_final)&lt;/span&gt;&lt;/span&gt;&lt;span&gt;&lt;span style=&quot;font-size: 12pt; font-family: Arial, sans-serif; background-color: transparent; font-weight: 700; font-variant-numeric: normal; font-variant-east-asian: normal; font-variant-alternates: normal; font-variant-position: normal; font-variant-emoji: normal; vertical-align: baseline; white-space-collapse: preserve;&quot;&gt;&lt;/span&gt;&lt;/span&gt;&lt;/div&gt;&lt;div style=&quot;&quot;&gt;&lt;span&gt;&lt;span style=&quot;font-size: 12pt; font-family: Arial, sans-serif; background-color: transparent; font-weight: 700; font-variant-numeric: normal; font-variant-east-asian: normal; font-variant-alternates: normal; font-variant-position: normal; font-variant-emoji: normal; vertical-align: baseline; white-space-collapse: preserve;&quot;&gt;&lt;br&gt;&lt;/span&gt;&lt;/span&gt;&lt;/div&gt;&lt;div&gt;&lt;br&gt;&lt;/div&gt;&lt;/div&gt;&lt;/div&gt;&lt;/div&gt;" style="text;strokeColor=none;fillColor=none;align=left;verticalAlign=top;spacingLeft=4;spacingRight=4;overflow=hidden;rotatable=0;points=[[0,0.5],[1,0.5]];portConstraint=eastwest;whiteSpace=wrap;html=1;" vertex="1" parent="8iS0AzTRtQN_j--zw8gc-33">
          <mxGeometry y="34" width="460" height="180" as="geometry" />
        </mxCell>
        <mxCell id="8iS0AzTRtQN_j--zw8gc-37" value="&lt;font style=&quot;font-size: 18px;&quot;&gt;Interfaz&lt;/font&gt;" style="swimlane;fontStyle=1;align=center;verticalAlign=top;childLayout=stackLayout;horizontal=1;startSize=26;horizontalStack=0;resizeParent=1;resizeParentMax=0;resizeLast=0;collapsible=1;marginBottom=0;whiteSpace=wrap;html=1;" vertex="1" parent="1">
          <mxGeometry x="1190" y="600" width="460" height="410" as="geometry" />
        </mxCell>
        <mxCell id="8iS0AzTRtQN_j--zw8gc-38" value="" style="line;strokeWidth=1;fillColor=none;align=left;verticalAlign=middle;spacingTop=-1;spacingLeft=3;spacingRight=3;rotatable=0;labelPosition=right;points=[];portConstraint=eastwest;strokeColor=inherit;" vertex="1" parent="8iS0AzTRtQN_j--zw8gc-37">
          <mxGeometry y="26" width="460" height="8" as="geometry" />
        </mxCell>
        <mxCell id="8iS0AzTRtQN_j--zw8gc-39" value="&lt;div style=&quot;&quot;&gt;&lt;span id=&quot;docs-internal-guid-de684bc7-7fff-a263-26c2-43bda12dda81&quot;&gt;&lt;span style=&quot;font-size: 12pt; font-family: Arial, sans-serif; background-color: transparent; font-weight: 700; font-variant-numeric: normal; font-variant-east-asian: normal; font-variant-alternates: normal; font-variant-position: normal; font-variant-emoji: normal; vertical-align: baseline; white-space-collapse: preserve;&quot;&gt;mostrarInterfaz(tipo_interfaz=&quot;menu_principal&quot;)&lt;/span&gt;&lt;/span&gt;&lt;/div&gt;&lt;div style=&quot;&quot;&gt;&lt;span style=&quot;font-family: Arial, sans-serif; font-size: 16px; font-weight: 700; white-space-collapse: preserve;&quot;&gt;mostrarInterfaz(tipo_interfaz=&quot;batalla&quot;)&lt;/span&gt;&lt;span&gt;&lt;span style=&quot;font-size: 12pt; font-family: Arial, sans-serif; background-color: transparent; font-weight: 700; font-variant-numeric: normal; font-variant-east-asian: normal; font-variant-alternates: normal; font-variant-position: normal; font-variant-emoji: normal; vertical-align: baseline; white-space-collapse: preserve;&quot;&gt;&lt;/span&gt;&lt;/span&gt;&lt;/div&gt;&lt;div style=&quot;&quot;&gt;&lt;span id=&quot;docs-internal-guid-eebea314-7fff-bfe1-8378-e81a15605ab0&quot;&gt;&lt;span style=&quot;font-size: 12pt; font-family: Arial, sans-serif; background-color: transparent; font-weight: 700; font-variant-numeric: normal; font-variant-east-asian: normal; font-variant-alternates: normal; font-variant-position: normal; font-variant-emoji: normal; vertical-align: baseline; white-space-collapse: preserve;&quot;&gt;capturarDestino(nombre_escenario)&lt;/span&gt;&lt;/span&gt;&lt;span style=&quot;font-family: Arial, sans-serif; font-size: 16px; font-weight: 700; white-space-collapse: preserve;&quot;&gt;&lt;/span&gt;&lt;/div&gt;&lt;div style=&quot;&quot;&gt;&lt;span id=&quot;docs-internal-guid-d6863f94-7fff-5876-0898-c3cb1ef79dce&quot;&gt;&lt;span style=&quot;font-size: 12pt; font-family: Arial, sans-serif; background-color: transparent; font-weight: 700; font-variant-numeric: normal; font-variant-east-asian: normal; font-variant-alternates: normal; font-variant-position: normal; font-variant-emoji: normal; vertical-align: baseline; white-space-collapse: preserve;&quot;&gt;mostrarInterfaz(tipo_interfaz=&quot;narrativa&quot;)&lt;/span&gt;&lt;/span&gt;&lt;span&gt;&lt;span style=&quot;font-size: 12pt; font-family: Arial, sans-serif; background-color: transparent; font-weight: 700; font-variant-numeric: normal; font-variant-east-asian: normal; font-variant-alternates: normal; font-variant-position: normal; font-variant-emoji: normal; vertical-align: baseline; white-space-collapse: preserve;&quot;&gt;&lt;/span&gt;&lt;/span&gt;&lt;/div&gt;&lt;div style=&quot;&quot;&gt;&lt;span id=&quot;docs-internal-guid-c4175235-7fff-7a28-29e2-0e401683e1f1&quot;&gt;&lt;span style=&quot;font-size: 12pt; font-family: Arial, sans-serif; background-color: transparent; font-weight: 700; font-variant-numeric: normal; font-variant-east-asian: normal; font-variant-alternates: normal; font-variant-position: normal; font-variant-emoji: normal; vertical-align: baseline; white-space-collapse: preserve;&quot;&gt;mostrarMensaje(mensaje_bloqueo)&lt;/span&gt;&lt;/span&gt;&lt;span&gt;&lt;span style=&quot;font-size: 12pt; font-family: Arial, sans-serif; background-color: transparent; font-weight: 700; font-variant-numeric: normal; font-variant-east-asian: normal; font-variant-alternates: normal; font-variant-position: normal; font-variant-emoji: normal; vertical-align: baseline; white-space-collapse: preserve;&quot;&gt;&lt;/span&gt;&lt;/span&gt;&lt;/div&gt;&lt;div style=&quot;&quot;&gt;&lt;span id=&quot;docs-internal-guid-534b7d78-7fff-4371-ab3d-0e23a8501bb6&quot;&gt;&lt;span style=&quot;font-size: 12pt; font-family: Arial, sans-serif; background-color: transparent; font-weight: 700; font-variant-numeric: normal; font-variant-east-asian: normal; font-variant-alternates: normal; font-variant-position: normal; font-variant-emoji: normal; vertical-align: baseline; white-space-collapse: preserve;&quot;&gt;mostrarInterfaz(tipo_interfaz=&quot;dialogo_reclutamiento&quot;)&lt;/span&gt;&lt;/span&gt;&lt;/div&gt;&lt;div style=&quot;&quot;&gt;&lt;span id=&quot;docs-internal-guid-7103bd89-7fff-7fa1-3167-fdd54bfd9632&quot;&gt;&lt;span style=&quot;font-size: 12pt; font-family: Arial, sans-serif; background-color: transparent; font-weight: 700; font-variant-numeric: normal; font-variant-east-asian: normal; font-variant-alternates: normal; font-variant-position: normal; font-variant-emoji: normal; vertical-align: baseline; white-space-collapse: preserve;&quot;&gt;capturarDecision(decision_jugador)&lt;/span&gt;&lt;/span&gt;&lt;span&gt;&lt;span style=&quot;font-size: 12pt; font-family: Arial, sans-serif; background-color: transparent; font-weight: 700; font-variant-numeric: normal; font-variant-east-asian: normal; font-variant-alternates: normal; font-variant-position: normal; font-variant-emoji: normal; vertical-align: baseline; white-space-collapse: preserve;&quot;&gt;&lt;/span&gt;&lt;/span&gt;&lt;/div&gt;&lt;div style=&quot;&quot;&gt;&lt;span id=&quot;docs-internal-guid-21b5c569-7fff-6718-c58e-a7792df5ca25&quot;&gt;&lt;span style=&quot;font-size: 12pt; font-family: Arial, sans-serif; background-color: transparent; font-weight: 700; font-variant-numeric: normal; font-variant-east-asian: normal; font-variant-alternates: normal; font-variant-position: normal; font-variant-emoji: normal; vertical-align: baseline; white-space-collapse: preserve;&quot;&gt;mostrarMensaje(mensaje_confirmacion)&lt;/span&gt;&lt;/span&gt;&lt;span&gt;&lt;span style=&quot;font-size: 12pt; font-family: Arial, sans-serif; background-color: transparent; font-weight: 700; font-variant-numeric: normal; font-variant-east-asian: normal; font-variant-alternates: normal; font-variant-position: normal; font-variant-emoji: normal; vertical-align: baseline; white-space-collapse: preserve;&quot;&gt;&lt;/span&gt;&lt;/span&gt;&lt;/div&gt;&lt;div style=&quot;&quot;&gt;&lt;span id=&quot;docs-internal-guid-89828b38-7fff-8d79-d3a0-45f54002d0f9&quot;&gt;&lt;span style=&quot;font-size: 12pt; font-family: Arial, sans-serif; background-color: transparent; font-weight: 700; font-variant-numeric: normal; font-variant-east-asian: normal; font-variant-alternates: normal; font-variant-position: normal; font-variant-emoji: normal; vertical-align: baseline; white-space-collapse: preserve;&quot;&gt;mostrarMensaje(mensaje_error)&lt;/span&gt;&lt;/span&gt;&lt;span&gt;&lt;span style=&quot;font-size: 12pt; font-family: Arial, sans-serif; background-color: transparent; font-weight: 700; font-variant-numeric: normal; font-variant-east-asian: normal; font-variant-alternates: normal; font-variant-position: normal; font-variant-emoji: normal; vertical-align: baseline; white-space-collapse: preserve;&quot;&gt;&lt;/span&gt;&lt;/span&gt;&lt;/div&gt;&lt;div style=&quot;&quot;&gt;&lt;span id=&quot;docs-internal-guid-bb8e6699-7fff-ad59-fc5c-0131ef163bd0&quot;&gt;&lt;span style=&quot;font-size: 12pt; font-family: Arial, sans-serif; background-color: transparent; font-weight: 700; font-variant-numeric: normal; font-variant-east-asian: normal; font-variant-alternates: normal; font-variant-position: normal; font-variant-emoji: normal; vertical-align: baseline; white-space-collapse: preserve;&quot;&gt;cerrarInterfaz(tipo_interfaz=&quot;dialogo_reclutamiento&quot;)&lt;/span&gt;&lt;/span&gt;&lt;span&gt;&lt;span style=&quot;font-size: 12pt; font-family: Arial, sans-serif; background-color: transparent; font-weight: 700; font-variant-numeric: normal; font-variant-east-asian: normal; font-variant-alternates: normal; font-variant-position: normal; font-variant-emoji: normal; vertical-align: baseline; white-space-collapse: preserve;&quot;&gt;&lt;/span&gt;&lt;/span&gt;&lt;/div&gt;&lt;div style=&quot;&quot;&gt;&lt;span id=&quot;docs-internal-guid-7ba7970c-7fff-8188-f758-61a036f19cf7&quot;&gt;&lt;span style=&quot;font-size: 12pt; font-family: Arial, sans-serif; background-color: transparent; font-weight: 700; font-variant-numeric: normal; font-variant-east-asian: normal; font-variant-alternates: normal; font-variant-position: normal; font-variant-emoji: normal; vertical-align: baseline; white-space-collapse: preserve;&quot;&gt;mostrarInterfaz(tipo_interfaz=&quot;final_juego&quot;)&lt;/span&gt;&lt;/span&gt;&lt;span&gt;&lt;span style=&quot;font-size: 12pt; font-family: Arial, sans-serif; background-color: transparent; font-weight: 700; font-variant-numeric: normal; font-variant-east-asian: normal; font-variant-alternates: normal; font-variant-position: normal; font-variant-emoji: normal; vertical-align: baseline; white-space-collapse: preserve;&quot;&gt;&lt;/span&gt;&lt;/span&gt;&lt;/div&gt;&lt;div style=&quot;&quot;&gt;&lt;span id=&quot;docs-internal-guid-4182cad5-7fff-14a8-96ac-dedd601a5bad&quot;&gt;&lt;span style=&quot;font-size: 12pt; font-family: Arial, sans-serif; background-color: transparent; font-weight: 700; font-variant-numeric: normal; font-variant-east-asian: normal; font-variant-alternates: normal; font-variant-position: normal; font-variant-emoji: normal; vertical-align: baseline; white-space-collapse: preserve;&quot;&gt;mostrarMensaje(mensaje_objetivos_pendientes)&lt;/span&gt;&lt;/span&gt;&lt;span&gt;&lt;span style=&quot;font-size: 12pt; font-family: Arial, sans-serif; background-color: transparent; font-weight: 700; font-variant-numeric: normal; font-variant-east-asian: normal; font-variant-alternates: normal; font-variant-position: normal; font-variant-emoji: normal; vertical-align: baseline; white-space-collapse: preserve;&quot;&gt;&lt;/span&gt;&lt;/span&gt;&lt;/div&gt;&lt;div style=&quot;&quot;&gt;&lt;span id=&quot;docs-internal-guid-a75699e1-7fff-8d45-7286-cb59c0d2cb21&quot;&gt;&lt;span style=&quot;font-size: 12pt; font-family: Arial, sans-serif; background-color: transparent; font-weight: 700; font-variant-numeric: normal; font-variant-east-asian: normal; font-variant-alternates: normal; font-variant-position: normal; font-variant-emoji: normal; vertical-align: baseline; white-space-collapse: preserve;&quot;&gt;mostrarInterfaz(tipo_interfaz=&quot;asignacion_puntos&quot;)&lt;/span&gt;&lt;/span&gt;&lt;span&gt;&lt;span style=&quot;font-size: 12pt; font-family: Arial, sans-serif; background-color: transparent; font-weight: 700; font-variant-numeric: normal; font-variant-east-asian: normal; font-variant-alternates: normal; font-variant-position: normal; font-variant-emoji: normal; vertical-align: baseline; white-space-collapse: preserve;&quot;&gt;&lt;/span&gt;&lt;/span&gt;&lt;/div&gt;&lt;div style=&quot;&quot;&gt;&lt;span id=&quot;docs-internal-guid-f969933c-7fff-b72a-f4ae-b13e6ff360ff&quot;&gt;&lt;span style=&quot;font-size: 12pt; font-family: Arial, sans-serif; background-color: transparent; font-weight: 700; font-variant-numeric: normal; font-variant-east-asian: normal; font-variant-alternates: normal; font-variant-position: normal; font-variant-emoji: normal; vertical-align: baseline; white-space-collapse: preserve;&quot;&gt;capturarSeleccionEstadisticas(id_personaje, puntos_asignados)&lt;/span&gt;&lt;/span&gt;&lt;span&gt;&lt;span style=&quot;font-size: 12pt; font-family: Arial, sans-serif; background-color: transparent; font-weight: 700; font-variant-numeric: normal; font-variant-east-asian: normal; font-variant-alternates: normal; font-variant-position: normal; font-variant-emoji: normal; vertical-align: baseline; white-space-collapse: preserve;&quot;&gt;&lt;/span&gt;&lt;/span&gt;&lt;/div&gt;&lt;div style=&quot;&quot;&gt;&lt;span id=&quot;docs-internal-guid-daee70b9-7fff-97a0-0f36-740349432c72&quot;&gt;&lt;span style=&quot;font-size: 12pt; font-family: Arial, sans-serif; background-color: transparent; font-weight: 700; font-variant-numeric: normal; font-variant-east-asian: normal; font-variant-alternates: normal; font-variant-position: normal; font-variant-emoji: normal; vertical-align: baseline; white-space-collapse: preserve;&quot;&gt;mostrarMensaje(mensaje_subida_nivel)&lt;/span&gt;&lt;/span&gt;&lt;span&gt;&lt;span style=&quot;font-size: 12pt; font-family: Arial, sans-serif; background-color: transparent; font-weight: 700; font-variant-numeric: normal; font-variant-east-asian: normal; font-variant-alternates: normal; font-variant-position: normal; font-variant-emoji: normal; vertical-align: baseline; white-space-collapse: preserve;&quot;&gt;&lt;/span&gt;&lt;/span&gt;&lt;/div&gt;&lt;div style=&quot;&quot;&gt;&lt;br&gt;&lt;/div&gt;" style="text;strokeColor=none;fillColor=none;align=left;verticalAlign=top;spacingLeft=4;spacingRight=4;overflow=hidden;rotatable=0;points=[[0,0.5],[1,0.5]];portConstraint=eastwest;whiteSpace=wrap;html=1;" vertex="1" parent="8iS0AzTRtQN_j--zw8gc-37">
          <mxGeometry y="34" width="460" height="376" as="geometry" />
        </mxCell>
        <mxCell id="8iS0AzTRtQN_j--zw8gc-40" value="&lt;font style=&quot;font-size: 18px;&quot;&gt;Guardar partida&lt;/font&gt;" style="swimlane;fontStyle=1;align=center;verticalAlign=top;childLayout=stackLayout;horizontal=1;startSize=26;horizontalStack=0;resizeParent=1;resizeParentMax=0;resizeLast=0;collapsible=1;marginBottom=0;whiteSpace=wrap;html=1;" vertex="1" parent="1">
          <mxGeometry x="1100" y="70" width="460" height="240" as="geometry" />
        </mxCell>
        <mxCell id="8iS0AzTRtQN_j--zw8gc-62" value="&lt;span style=&quot;font-family: Arial, sans-serif; font-size: 18px; font-weight: 700; text-align: center; white-space-collapse: preserve;&quot;&gt;__innit__()&lt;/span&gt;" style="text;strokeColor=none;fillColor=none;align=left;verticalAlign=top;spacingLeft=4;spacingRight=4;overflow=hidden;rotatable=0;points=[[0,0.5],[1,0.5]];portConstraint=eastwest;whiteSpace=wrap;html=1;" vertex="1" parent="8iS0AzTRtQN_j--zw8gc-40">
          <mxGeometry y="26" width="460" height="26" as="geometry" />
        </mxCell>
        <mxCell id="8iS0AzTRtQN_j--zw8gc-41" value="" style="line;strokeWidth=1;fillColor=none;align=left;verticalAlign=middle;spacingTop=-1;spacingLeft=3;spacingRight=3;rotatable=0;labelPosition=right;points=[];portConstraint=eastwest;strokeColor=inherit;" vertex="1" parent="8iS0AzTRtQN_j--zw8gc-40">
          <mxGeometry y="52" width="460" height="8" as="geometry" />
        </mxCell>
        <mxCell id="8iS0AzTRtQN_j--zw8gc-42" value="&lt;div style=&quot;&quot;&gt;&lt;div style=&quot;&quot;&gt;&lt;span id=&quot;docs-internal-guid-03db4e3b-7fff-6c4d-5267-98ee94c0f464&quot;&gt;&lt;span style=&quot;font-size: 12pt; font-family: Arial, sans-serif; background-color: transparent; font-weight: 700; font-variant-numeric: normal; font-variant-east-asian: normal; font-variant-alternates: normal; font-variant-position: normal; font-variant-emoji: normal; vertical-align: baseline; white-space-collapse: preserve;&quot;&gt;guardar_partida(Partida,Ranura:list[])&lt;/span&gt;&lt;/span&gt;&lt;/div&gt;&lt;div style=&quot;&quot;&gt;&lt;span style=&quot;background-color: transparent; color: light-dark(rgb(0, 0, 0), rgb(255, 255, 255)); font-family: Arial, sans-serif; font-size: 12pt; font-weight: 700; white-space-collapse: preserve;&quot;&gt;Cargar_partida(Ranura:list[])&lt;/span&gt;&lt;/div&gt;&lt;div style=&quot;&quot;&gt;&lt;span id=&quot;docs-internal-guid-d5024986-7fff-abac-1642-20c940b70a0d&quot;&gt;&lt;span style=&quot;font-size: 12pt; font-family: Arial, sans-serif; background-color: transparent; font-weight: 700; font-variant-numeric: normal; font-variant-east-asian: normal; font-variant-alternates: normal; font-variant-position: normal; font-variant-emoji: normal; vertical-align: baseline; white-space-collapse: preserve;&quot;&gt;Sobreescribir_partida(Ranura:list[])&lt;br&gt;&lt;/span&gt;&lt;/span&gt;&lt;/div&gt;&lt;div style=&quot;&quot;&gt;&lt;span id=&quot;docs-internal-guid-a0263832-7fff-d9e9-44de-aaf527cd96ec&quot;&gt;&lt;span style=&quot;font-size: 12pt; font-family: Arial, sans-serif; background-color: transparent; font-weight: 700; font-variant-numeric: normal; font-variant-east-asian: normal; font-variant-alternates: normal; font-variant-position: normal; font-variant-emoji: normal; vertical-align: baseline; white-space-collapse: preserve;&quot;&gt;guardarEstadoFinal(estado_historia, lista_decisiones, objetivos_cumplidos)&lt;/span&gt;&lt;/span&gt;&lt;span&gt;&lt;span style=&quot;font-size: 12pt; font-family: Arial, sans-serif; background-color: transparent; font-weight: 700; font-variant-numeric: normal; font-variant-east-asian: normal; font-variant-alternates: normal; font-variant-position: normal; font-variant-emoji: normal; vertical-align: baseline; white-space-collapse: preserve;&quot;&gt;&lt;/span&gt;&lt;/span&gt;&lt;/div&gt;&lt;/div&gt;" style="text;strokeColor=none;fillColor=none;align=left;verticalAlign=top;spacingLeft=4;spacingRight=4;overflow=hidden;rotatable=0;points=[[0,0.5],[1,0.5]];portConstraint=eastwest;whiteSpace=wrap;html=1;" vertex="1" parent="8iS0AzTRtQN_j--zw8gc-40">
          <mxGeometry y="60" width="460" height="180" as="geometry" />
        </mxCell>
        <mxCell id="8iS0AzTRtQN_j--zw8gc-43" value="&lt;font style=&quot;font-size: 18px;&quot;&gt;Personaje&lt;/font&gt;" style="swimlane;fontStyle=1;align=center;verticalAlign=top;childLayout=stackLayout;horizontal=1;startSize=26;horizontalStack=0;resizeParent=1;resizeParentMax=0;resizeLast=0;collapsible=1;marginBottom=0;whiteSpace=wrap;html=1;" vertex="1" parent="1">
          <mxGeometry x="110" y="70" width="460" height="440" as="geometry" />
        </mxCell>
        <mxCell id="8iS0AzTRtQN_j--zw8gc-59" value="&lt;span style=&quot;font-family: Arial, sans-serif; font-size: 18px; font-weight: 700; text-align: center; white-space-collapse: preserve;&quot;&gt;__innit__(gÃ©nero,nombre):str&lt;/span&gt;" style="text;strokeColor=none;fillColor=none;align=left;verticalAlign=top;spacingLeft=4;spacingRight=4;overflow=hidden;rotatable=0;points=[[0,0.5],[1,0.5]];portConstraint=eastwest;whiteSpace=wrap;html=1;" vertex="1" parent="8iS0AzTRtQN_j--zw8gc-43">
          <mxGeometry y="26" width="460" height="26" as="geometry" />
        </mxCell>
        <mxCell id="8iS0AzTRtQN_j--zw8gc-44" value="" style="line;strokeWidth=1;fillColor=none;align=left;verticalAlign=middle;spacingTop=-1;spacingLeft=3;spacingRight=3;rotatable=0;labelPosition=right;points=[];portConstraint=eastwest;strokeColor=inherit;" vertex="1" parent="8iS0AzTRtQN_j--zw8gc-43">
          <mxGeometry y="52" width="460" height="8" as="geometry" />
        </mxCell>
        <mxCell id="8iS0AzTRtQN_j--zw8gc-45" value="&lt;div style=&quot;&quot;&gt;&lt;div style=&quot;&quot;&gt;&lt;span style=&quot;text-align: center;&quot; id=&quot;docs-internal-guid-429778d6-7fff-58cb-c873-2e18890a3c5c&quot;&gt;&lt;span style=&quot;font-family: Arial, sans-serif; background-color: transparent; font-weight: 700; font-variant-numeric: normal; font-variant-east-asian: normal; font-variant-alternates: normal; font-variant-position: normal; font-variant-emoji: normal; vertical-align: baseline; white-space-collapse: preserve;&quot;&gt;&lt;font style=&quot;font-size: 18px;&quot;&gt;nombre_jugador(nombre)&lt;/font&gt;&lt;/span&gt;&lt;/span&gt;&lt;div&gt;&lt;span style=&quot;background-color: transparent; font-family: Arial, sans-serif; font-size: 12pt; font-weight: 700; white-space-collapse: preserve; text-align: center; color: light-dark(rgb(0, 0, 0), rgb(255, 255, 255));&quot;&gt;Genero_jugador(gÃ©nero)&lt;/span&gt;&lt;/div&gt;&lt;/div&gt;&lt;div style=&quot;&quot;&gt;&lt;span style=&quot;font-family: Arial, sans-serif; font-size: 16px; font-weight: 700; white-space-collapse: preserve;&quot;&gt;ataqueJugador(objetivo_enemigo, estadisticas_jugador)&lt;/span&gt;&lt;/div&gt;&lt;div style=&quot;&quot;&gt;&lt;span id=&quot;docs-internal-guid-3ab93062-7fff-8a31-f7fe-a254890c350d&quot;&gt;&lt;span style=&quot;font-size: 12pt; font-family: Arial, sans-serif; background-color: transparent; font-weight: 700; font-variant-numeric: normal; font-variant-east-asian: normal; font-variant-alternates: normal; font-variant-position: normal; font-variant-emoji: normal; vertical-align: baseline; white-space-collapse: preserve;&quot;&gt;ataqueEnemigo(jugador, estadisticas_enemigo)&lt;/span&gt;&lt;/span&gt;&lt;span style=&quot;font-family: Arial, sans-serif; font-size: 16px; font-weight: 700; white-space-collapse: preserve;&quot;&gt;&lt;/span&gt;&lt;/div&gt;&lt;div style=&quot;&quot;&gt;&lt;span id=&quot;docs-internal-guid-270c5de4-7fff-e4c9-d335-bb195dab1c56&quot;&gt;&lt;span style=&quot;font-size: 12pt; font-family: Arial, sans-serif; background-color: transparent; font-weight: 700; font-variant-numeric: normal; font-variant-east-asian: normal; font-variant-alternates: normal; font-variant-position: normal; font-variant-emoji: normal; vertical-align: baseline; white-space-collapse: preserve;&quot;&gt;Puntos_disponibles(Puntos de subida de nivel)&lt;/span&gt;&lt;/span&gt;&lt;span&gt;&lt;span style=&quot;font-size: 12pt; font-family: Arial, sans-serif; background-color: transparent; font-weight: 700; font-variant-numeric: normal; font-variant-east-asian: normal; font-variant-alternates: normal; font-variant-position: normal; font-variant-emoji: normal; vertical-align: baseline; white-space-collapse: preserve;&quot;&gt;&lt;/span&gt;&lt;/span&gt;&lt;/div&gt;&lt;div style=&quot;&quot;&gt;&lt;span id=&quot;docs-internal-guid-d4fdb19b-7fff-2b69-f85c-a6600f950e36&quot;&gt;&lt;span style=&quot;font-size: 12pt; font-family: Arial, sans-serif; background-color: transparent; font-weight: 700; font-variant-numeric: normal; font-variant-east-asian: normal; font-variant-alternates: normal; font-variant-position: normal; font-variant-emoji: normal; vertical-align: baseline; white-space-collapse: preserve;&quot;&gt;Estadistica_a_subir(Puntos de subida de &lt;/span&gt;&lt;/span&gt;&lt;span style=&quot;background-color: transparent; font-family: Arial, sans-serif; font-size: 12pt; font-weight: 700; white-space-collapse: preserve; color: light-dark(rgb(0, 0, 0), rgb(255, 255, 255));&quot;&gt;nivel,Estadisticas)&lt;/span&gt;&lt;/div&gt;&lt;div style=&quot;&quot;&gt;&lt;span id=&quot;docs-internal-guid-931959ad-7fff-825a-4063-0a460c33c529&quot;&gt;&lt;span style=&quot;font-size: 12pt; font-family: Arial, sans-serif; background-color: transparent; font-weight: 700; font-variant-numeric: normal; font-variant-east-asian: normal; font-variant-alternates: normal; font-variant-position: normal; font-variant-emoji: normal; vertical-align: baseline; white-space-collapse: preserve;&quot;&gt;Subir_estadistica(Estadisticas)&lt;/span&gt;&lt;/span&gt;&lt;span style=&quot;background-color: transparent; font-family: Arial, sans-serif; font-size: 12pt; font-weight: 700; white-space-collapse: preserve; color: light-dark(rgb(0, 0, 0), rgb(255, 255, 255));&quot;&gt;&lt;/span&gt;&lt;/div&gt;&lt;div style=&quot;&quot;&gt;&lt;span id=&quot;docs-internal-guid-9682b939-7fff-a3f1-1d45-f36081e07768&quot;&gt;&lt;span style=&quot;font-size: 12pt; font-family: Arial, sans-serif; background-color: transparent; font-weight: 700; font-variant-numeric: normal; font-variant-east-asian: normal; font-variant-alternates: normal; font-variant-position: normal; font-variant-emoji: normal; vertical-align: baseline; white-space-collapse: preserve;&quot;&gt;cargarNarrativa(nombre_escenario)&lt;/span&gt;&lt;/span&gt;&lt;span&gt;&lt;span style=&quot;font-size: 12pt; font-family: Arial, sans-serif; background-color: transparent; font-weight: 700; font-variant-numeric: normal; font-variant-east-asian: normal; font-variant-alternates: normal; font-variant-position: normal; font-variant-emoji: normal; vertical-align: baseline; white-space-collapse: preserve;&quot;&gt;&lt;/span&gt;&lt;/span&gt;&lt;/div&gt;&lt;div style=&quot;&quot;&gt;&lt;span style=&quot;font-family: Arial, sans-serif; font-size: 16px; font-weight: 700; white-space-collapse: preserve;&quot;&gt;validarReclutamiento(estado_historia, id_personaje_aliado)&lt;/span&gt;&lt;span&gt;&lt;span style=&quot;font-size: 12pt; font-family: Arial, sans-serif; background-color: transparent; font-weight: 700; font-variant-numeric: normal; font-variant-east-asian: normal; font-variant-alternates: normal; font-variant-position: normal; font-variant-emoji: normal; vertical-align: baseline; white-space-collapse: preserve;&quot;&gt;&lt;/span&gt;&lt;/span&gt;&lt;/div&gt;&lt;div style=&quot;&quot;&gt;&lt;span id=&quot;docs-internal-guid-deeeeb18-7fff-8424-57de-5ea1dc57593e&quot;&gt;&lt;span style=&quot;font-size: 12pt; font-family: Arial, sans-serif; background-color: transparent; font-weight: 700; font-variant-numeric: normal; font-variant-east-asian: normal; font-variant-alternates: normal; font-variant-position: normal; font-variant-emoji: normal; vertical-align: baseline; white-space-collapse: preserve;&quot;&gt;Tiene_receta(Receta)&lt;/span&gt;&lt;/span&gt;&lt;span style=&quot;font-family: Arial, sans-serif; font-size: 16px; font-weight: 700; white-space-collapse: preserve;&quot;&gt;&lt;/span&gt;&lt;/div&gt;&lt;div style=&quot;&quot;&gt;&lt;span id=&quot;docs-internal-guid-bde990cc-7fff-a8e8-7e56-b36c71a71031&quot;&gt;&lt;span style=&quot;font-size: 12pt; font-family: Arial, sans-serif; background-color: transparent; font-weight: 700; font-variant-numeric: normal; font-variant-east-asian: normal; font-variant-alternates: normal; font-variant-position: normal; font-variant-emoji: normal; vertical-align: baseline; white-space-collapse: preserve;&quot;&gt;creacion_objeto(Receta,Material)&lt;/span&gt;&lt;/span&gt;&lt;span&gt;&lt;span style=&quot;font-size: 12pt; font-family: Arial, sans-serif; background-color: transparent; font-weight: 700; font-variant-numeric: normal; font-variant-east-asian: normal; font-variant-alternates: normal; font-variant-position: normal; font-variant-emoji: normal; vertical-align: baseline; white-space-collapse: preserve;&quot;&gt;&lt;/span&gt;&lt;/span&gt;&lt;/div&gt;&lt;div style=&quot;&quot;&gt;&lt;span id=&quot;docs-internal-guid-038ba391-7fff-d638-a6fe-7a1b48ffc8d4&quot;&gt;&lt;span style=&quot;font-size: 12pt; font-family: Arial, sans-serif; background-color: transparent; font-weight: 700; font-variant-numeric: normal; font-variant-east-asian: normal; font-variant-alternates: normal; font-variant-position: normal; font-variant-emoji: normal; vertical-align: baseline; white-space-collapse: preserve;&quot;&gt;Agregar_inventario(Inventario)&lt;/span&gt;&lt;/span&gt;&lt;span&gt;&lt;span style=&quot;font-size: 12pt; font-family: Arial, sans-serif; background-color: transparent; font-weight: 700; font-variant-numeric: normal; font-variant-east-asian: normal; font-variant-alternates: normal; font-variant-position: normal; font-variant-emoji: normal; vertical-align: baseline; white-space-collapse: preserve;&quot;&gt;&lt;/span&gt;&lt;/span&gt;&lt;/div&gt;&lt;div style=&quot;&quot;&gt;&lt;span id=&quot;docs-internal-guid-e77c32a3-7fff-f410-b39b-2c1a65703972&quot;&gt;&lt;span style=&quot;font-size: 12pt; font-family: Arial, sans-serif; background-color: transparent; font-weight: 700; font-variant-numeric: normal; font-variant-east-asian: normal; font-variant-alternates: normal; font-variant-position: normal; font-variant-emoji: normal; vertical-align: baseline; white-space-collapse: preserve;&quot;&gt;subirNivel(id_personaje, nivel_actual)&lt;/span&gt;&lt;/span&gt;&lt;span&gt;&lt;span style=&quot;font-size: 12pt; font-family: Arial, sans-serif; background-color: transparent; font-weight: 700; font-variant-numeric: normal; font-variant-east-asian: normal; font-variant-alternates: normal; font-variant-position: normal; font-variant-emoji: normal; vertical-align: baseline; white-space-collapse: preserve;&quot;&gt;&lt;/span&gt;&lt;/span&gt;&lt;/div&gt;&lt;div style=&quot;&quot;&gt;&lt;span id=&quot;docs-internal-guid-56984361-7fff-5151-bac1-a4949b0e044e&quot;&gt;&lt;span style=&quot;font-size: 12pt; font-family: Arial, sans-serif; background-color: transparent; font-weight: 700; font-variant-numeric: normal; font-variant-east-asian: normal; font-variant-alternates: normal; font-variant-position: normal; font-variant-emoji: normal; vertical-align: baseline; white-space-collapse: preserve;&quot;&gt;actualizarEstadisticas(id_personaje, estadisticas_actualizadas)&lt;/span&gt;&lt;/span&gt;&lt;span&gt;&lt;span style=&quot;font-size: 12pt; font-family: Arial, sans-serif; background-color: transparent; font-weight: 700; font-variant-numeric: normal; font-variant-east-asian: normal; font-variant-alternates: normal; font-variant-position: normal; font-variant-emoji: normal; vertical-align: baseline; white-space-collapse: preserve;&quot;&gt;&lt;/span&gt;&lt;/span&gt;&lt;/div&gt;&lt;div style=&quot;&quot;&gt;&lt;span id=&quot;docs-internal-guid-ce532ac9-7fff-2aa9-6d3b-48f4d29d13f1&quot;&gt;&lt;span style=&quot;font-size: 12pt; font-family: Arial, sans-serif; background-color: transparent; font-weight: 700; font-variant-numeric: normal; font-variant-east-asian: normal; font-variant-alternates: normal; font-variant-position: normal; font-variant-emoji: normal; vertical-align: baseline; white-space-collapse: preserve;&quot;&gt;vender_objeto()&lt;/span&gt;&lt;/span&gt;&lt;span&gt;&lt;span style=&quot;font-size: 12pt; font-family: Arial, sans-serif; background-color: transparent; font-weight: 700; font-variant-numeric: normal; font-variant-east-asian: normal; font-variant-alternates: normal; font-variant-position: normal; font-variant-emoji: normal; vertical-align: baseline; white-space-collapse: preserve;&quot;&gt;&lt;/span&gt;&lt;/span&gt;&lt;/div&gt;&lt;div style=&quot;&quot;&gt;&lt;span id=&quot;docs-internal-guid-fb3bc322-7fff-54d2-8e30-f7da774738a6&quot;&gt;&lt;span style=&quot;font-size: 12pt; font-family: Arial, sans-serif; background-color: transparent; font-weight: 700; font-variant-numeric: normal; font-variant-east-asian: normal; font-variant-alternates: normal; font-variant-position: normal; font-variant-emoji: normal; vertical-align: baseline; white-space-collapse: preserve;&quot;&gt;comprar_objeto()&lt;/span&gt;&lt;/span&gt;&lt;span&gt;&lt;span style=&quot;font-size: 12pt; font-family: Arial, sans-serif; background-color: transparent; font-weight: 700; font-variant-numeric: normal; font-variant-east-asian: normal; font-variant-alternates: normal; font-variant-position: normal; font-variant-emoji: normal; vertical-align: baseline; white-space-collapse: preserve;&quot;&gt;&lt;/span&gt;&lt;/span&gt;&lt;/div&gt;&lt;/div&gt;" style="text;strokeColor=none;fillColor=none;align=left;verticalAlign=top;spacingLeft=4;spacingRight=4;overflow=hidden;rotatable=0;points=[[0,0.5],[1,0.5]];portConstraint=eastwest;whiteSpace=wrap;html=1;" vertex="1" parent="8iS0AzTRtQN_j--zw8gc-43">
          <mxGeometry y="60" width="460" height="380" as="geometry" />
        </mxCell>
        <mxCell id="8iS0AzTRtQN_j--zw8gc-46" value="&lt;font style=&quot;font-size: 18px;&quot;&gt;Mapa&lt;/font&gt;" style="swimlane;fontStyle=1;align=center;verticalAlign=top;childLayout=stackLayout;horizontal=1;startSize=26;horizontalStack=0;resizeParent=1;resizeParentMax=0;resizeLast=0;collapsible=1;marginBottom=0;whiteSpace=wrap;html=1;" vertex="1" parent="1">
          <mxGeometry x="10" y="600" width="460" height="214" as="geometry" />
        </mxCell>
        <mxCell id="8iS0AzTRtQN_j--zw8gc-47" value="" style="line;strokeWidth=1;fillColor=none;align=left;verticalAlign=middle;spacingTop=-1;spacingLeft=3;spacingRight=3;rotatable=0;labelPosition=right;points=[];portConstraint=eastwest;strokeColor=inherit;" vertex="1" parent="8iS0AzTRtQN_j--zw8gc-46">
          <mxGeometry y="26" width="460" height="8" as="geometry" />
        </mxCell>
        <mxCell id="8iS0AzTRtQN_j--zw8gc-48" value="&lt;div style=&quot;&quot;&gt;&lt;div&gt;&lt;span id=&quot;docs-internal-guid-03068586-7fff-0582-601d-30a14f2b05f3&quot;&gt;&lt;span style=&quot;font-size: 12pt; font-family: Arial, sans-serif; background-color: transparent; font-weight: 700; font-variant-numeric: normal; font-variant-east-asian: normal; font-variant-alternates: normal; font-variant-position: normal; font-variant-emoji: normal; vertical-align: baseline; white-space-collapse: preserve;&quot;&gt;cargarMapa(nombre_mapa)&lt;/span&gt;&lt;/span&gt;&lt;/div&gt;&lt;div&gt;&lt;span id=&quot;docs-internal-guid-37613963-7fff-26c3-2f6d-e0325941b97c&quot;&gt;&lt;span style=&quot;font-size: 12pt; font-family: Arial, sans-serif; background-color: transparent; font-weight: 700; font-variant-numeric: normal; font-variant-east-asian: normal; font-variant-alternates: normal; font-variant-position: normal; font-variant-emoji: normal; vertical-align: baseline; white-space-collapse: preserve;&quot;&gt;cargarPartida(ruta_guardado)&lt;/span&gt;&lt;/span&gt;&lt;span&gt;&lt;span style=&quot;font-size: 12pt; font-family: Arial, sans-serif; background-color: transparent; font-weight: 700; font-variant-numeric: normal; font-variant-east-asian: normal; font-variant-alternates: normal; font-variant-position: normal; font-variant-emoji: normal; vertical-align: baseline; white-space-collapse: preserve;&quot;&gt;&lt;/span&gt;&lt;/span&gt;&lt;/div&gt;&lt;div&gt;&lt;span id=&quot;docs-internal-guid-d9d8a4c3-7fff-385b-bdbb-95f5862fa042&quot;&gt;&lt;span style=&quot;font-size: 12pt; font-family: Arial, sans-serif; background-color: transparent; font-weight: 700; font-variant-numeric: normal; font-variant-east-asian: normal; font-variant-alternates: normal; font-variant-position: normal; font-variant-emoji: normal; vertical-align: baseline; white-space-collapse: preserve;&quot;&gt;detectarEnemigo(id_escenario, estado_historia)&lt;/span&gt;&lt;/span&gt;&lt;span&gt;&lt;span style=&quot;font-size: 12pt; font-family: Arial, sans-serif; background-color: transparent; font-weight: 700; font-variant-numeric: normal; font-variant-east-asian: normal; font-variant-alternates: normal; font-variant-position: normal; font-variant-emoji: normal; vertical-align: baseline; white-space-collapse: preserve;&quot;&gt;&lt;/span&gt;&lt;/span&gt;&lt;/div&gt;&lt;div&gt;&lt;span id=&quot;docs-internal-guid-ad30e98d-7fff-873b-4253-9f81d984de15&quot;&gt;&lt;span style=&quot;font-size: 12pt; font-family: Arial, sans-serif; background-color: transparent; font-weight: 700; font-variant-numeric: normal; font-variant-east-asian: normal; font-variant-alternates: normal; font-variant-position: normal; font-variant-emoji: normal; vertical-align: baseline; white-space-collapse: preserve;&quot;&gt;mostrarInterfaz(tipo_interfaz=&quot;batalla&quot;)&lt;/span&gt;&lt;/span&gt;&lt;span&gt;&lt;span style=&quot;font-size: 12pt; font-family: Arial, sans-serif; background-color: transparent; font-weight: 700; font-variant-numeric: normal; font-variant-east-asian: normal; font-variant-alternates: normal; font-variant-position: normal; font-variant-emoji: normal; vertical-align: baseline; white-space-collapse: preserve;&quot;&gt;&lt;/span&gt;&lt;/span&gt;&lt;/div&gt;&lt;div&gt;&lt;span id=&quot;docs-internal-guid-32daf702-7fff-5722-2167-31ce285439b7&quot;&gt;&lt;span style=&quot;font-size: 12pt; font-family: Arial, sans-serif; background-color: transparent; font-weight: 700; font-variant-numeric: normal; font-variant-east-asian: normal; font-variant-alternates: normal; font-variant-position: normal; font-variant-emoji: normal; vertical-align: baseline; white-space-collapse: preserve;&quot;&gt;validarDestino(nombre_escenario)&lt;/span&gt;&lt;/span&gt;&lt;span&gt;&lt;span style=&quot;font-size: 12pt; font-family: Arial, sans-serif; background-color: transparent; font-weight: 700; font-variant-numeric: normal; font-variant-east-asian: normal; font-variant-alternates: normal; font-variant-position: normal; font-variant-emoji: normal; vertical-align: baseline; white-space-collapse: preserve;&quot;&gt;&lt;/span&gt;&lt;/span&gt;&lt;/div&gt;&lt;div&gt;&lt;span id=&quot;docs-internal-guid-2b0edc65-7fff-cc5b-02c7-b16769c7d54d&quot;&gt;&lt;span style=&quot;font-size: 12pt; font-family: Arial, sans-serif; background-color: transparent; font-weight: 700; font-variant-numeric: normal; font-variant-east-asian: normal; font-variant-alternates: normal; font-variant-position: normal; font-variant-emoji: normal; vertical-align: baseline; white-space-collapse: preserve;&quot;&gt;cargarMapa(nombre_mapa)&lt;/span&gt;&lt;/span&gt;&lt;/div&gt;&lt;/div&gt;" style="text;strokeColor=none;fillColor=none;align=left;verticalAlign=top;spacingLeft=4;spacingRight=4;overflow=hidden;rotatable=0;points=[[0,0.5],[1,0.5]];portConstraint=eastwest;whiteSpace=wrap;html=1;" vertex="1" parent="8iS0AzTRtQN_j--zw8gc-46">
          <mxGeometry y="34" width="460" height="180" as="geometry" />
        </mxCell>
        <mxCell id="8iS0AzTRtQN_j--zw8gc-49" value="&lt;font style=&quot;font-size: 18px;&quot;&gt;Ambiente&lt;/font&gt;" style="swimlane;fontStyle=1;align=center;verticalAlign=top;childLayout=stackLayout;horizontal=1;startSize=26;horizontalStack=0;resizeParent=1;resizeParentMax=0;resizeLast=0;collapsible=1;marginBottom=0;whiteSpace=wrap;html=1;" vertex="1" parent="1">
          <mxGeometry x="180" y="960" width="460" height="214" as="geometry" />
        </mxCell>
        <mxCell id="8iS0AzTRtQN_j--zw8gc-50" value="" style="line;strokeWidth=1;fillColor=none;align=left;verticalAlign=middle;spacingTop=-1;spacingLeft=3;spacingRight=3;rotatable=0;labelPosition=right;points=[];portConstraint=eastwest;strokeColor=inherit;" vertex="1" parent="8iS0AzTRtQN_j--zw8gc-49">
          <mxGeometry y="26" width="460" height="8" as="geometry" />
        </mxCell>
        <mxCell id="8iS0AzTRtQN_j--zw8gc-51" value="&lt;div&gt;&lt;div&gt;&lt;div style=&quot;&quot;&gt;&lt;div&gt;&lt;span id=&quot;docs-internal-guid-9670b37d-7fff-05e2-2140-e90eedb7e261&quot;&gt;&lt;span style=&quot;font-size: 12pt; font-family: Arial, sans-serif; background-color: transparent; font-weight: 700; font-variant-numeric: normal; font-variant-east-asian: normal; font-variant-alternates: normal; font-variant-position: normal; font-variant-emoji: normal; vertical-align: baseline; white-space-collapse: preserve;&quot;&gt;configurarAmbiente(imagen, sonido)&lt;/span&gt;&lt;/span&gt;&lt;/div&gt;&lt;/div&gt;&lt;/div&gt;&lt;/div&gt;" style="text;strokeColor=none;fillColor=none;align=left;verticalAlign=top;spacingLeft=4;spacingRight=4;overflow=hidden;rotatable=0;points=[[0,0.5],[1,0.5]];portConstraint=eastwest;whiteSpace=wrap;html=1;" vertex="1" parent="8iS0AzTRtQN_j--zw8gc-49">
          <mxGeometry y="34" width="460" height="180" as="geometry" />
        </mxCell>
        <mxCell id="8iS0AzTRtQN_j--zw8gc-52" style="edgeStyle=orthogonalEdgeStyle;rounded=0;orthogonalLoop=1;jettySize=auto;html=1;exitX=0;exitY=0.5;exitDx=0;exitDy=0;entryX=1;entryY=0.5;entryDx=0;entryDy=0;" edge="1" parent="1" source="8iS0AzTRtQN_j--zw8gc-32" target="8iS0AzTRtQN_j--zw8gc-45">
          <mxGeometry relative="1" as="geometry" />
        </mxCell>
        <mxCell id="8iS0AzTRtQN_j--zw8gc-53" value="" style="endArrow=classic;html=1;rounded=0;entryX=1;entryY=0.5;entryDx=0;entryDy=0;exitX=-0.003;exitY=0.678;exitDx=0;exitDy=0;exitPerimeter=0;" edge="1" parent="1" source="8iS0AzTRtQN_j--zw8gc-32" target="8iS0AzTRtQN_j--zw8gc-48">
          <mxGeometry width="50" height="50" relative="1" as="geometry">
            <mxPoint x="840" y="590" as="sourcePoint" />
            <mxPoint x="580" y="810" as="targetPoint" />
            <Array as="points" />
          </mxGeometry>
        </mxCell>
        <mxCell id="8iS0AzTRtQN_j--zw8gc-54" value="" style="endArrow=classic;html=1;rounded=0;exitX=1;exitY=0.74;exitDx=0;exitDy=0;exitPerimeter=0;entryX=-0.002;entryY=0.286;entryDx=0;entryDy=0;entryPerimeter=0;" edge="1" parent="1" source="8iS0AzTRtQN_j--zw8gc-32" target="8iS0AzTRtQN_j--zw8gc-39">
          <mxGeometry width="50" height="50" relative="1" as="geometry">
            <mxPoint x="900" y="972" as="sourcePoint" />
            <mxPoint x="1150" y="750" as="targetPoint" />
            <Array as="points">
              <mxPoint x="1120" y="741" />
            </Array>
          </mxGeometry>
        </mxCell>
        <mxCell id="8iS0AzTRtQN_j--zw8gc-55" value="" style="endArrow=classic;html=1;rounded=0;exitX=1.003;exitY=0.213;exitDx=0;exitDy=0;entryX=0.526;entryY=0.99;entryDx=0;entryDy=0;entryPerimeter=0;exitPerimeter=0;" edge="1" parent="1" source="8iS0AzTRtQN_j--zw8gc-32" target="8iS0AzTRtQN_j--zw8gc-42">
          <mxGeometry width="50" height="50" relative="1" as="geometry">
            <mxPoint x="1190" y="582" as="sourcePoint" />
            <mxPoint x="1559" y="460" as="targetPoint" />
            <Array as="points">
              <mxPoint x="1342" y="520" />
            </Array>
          </mxGeometry>
        </mxCell>
        <mxCell id="8iS0AzTRtQN_j--zw8gc-56" value="" style="endArrow=classic;html=1;rounded=0;exitX=0.504;exitY=1.004;exitDx=0;exitDy=0;entryX=0;entryY=0.5;entryDx=0;entryDy=0;exitPerimeter=0;" edge="1" parent="1" source="8iS0AzTRtQN_j--zw8gc-32" target="8iS0AzTRtQN_j--zw8gc-36">
          <mxGeometry width="50" height="50" relative="1" as="geometry">
            <mxPoint x="790" y="972" as="sourcePoint" />
            <mxPoint x="1159" y="850" as="targetPoint" />
            <Array as="points">
              <mxPoint x="874" y="1174" />
            </Array>
          </mxGeometry>
        </mxCell>
        <mxCell id="8iS0AzTRtQN_j--zw8gc-57" value="" style="endArrow=classic;html=1;rounded=0;entryX=1;entryY=0.5;entryDx=0;entryDy=0;exitX=0.317;exitY=1.017;exitDx=0;exitDy=0;exitPerimeter=0;" edge="1" parent="1" source="8iS0AzTRtQN_j--zw8gc-32" target="8iS0AzTRtQN_j--zw8gc-51">
          <mxGeometry width="50" height="50" relative="1" as="geometry">
            <mxPoint x="780" y="703" as="sourcePoint" />
            <mxPoint x="1089" y="1320" as="targetPoint" />
            <Array as="points">
              <mxPoint x="780" y="1084" />
            </Array>
          </mxGeometry>
        </mxCell>
      </root>
    </mxGraphModel>
  </diagram>
</mxfile>
